<?xml version="1.0" encoding="utf-8"?>
<!-- Generator: Adobe Illustrator 25.4.1, SVG Export Plug-In . SVG Version: 6.00 Build 0)  -->
<svg version="1.1" id="Capa_1" xmlns="http://www.w3.org/2000/svg" xmlns:xlink="http://www.w3.org/1999/xlink" x="0px" y="0px"
	 viewBox="0 0 512 512" style="enable-background:new 0 0 512 512;" xml:space="preserve">
<g id="Layer_1">
</g>
<g>
	<g id="XMLID_00000101098171243969676830000006552222582465762468_">
		<g>
			<path d="M356.7,124.9c0,26.7-10.2,54.9-27.9,77.3c-19.8,25-45.6,38.7-72.8,38.7s-53-13.8-72.8-38.7
				c-17.8-22.4-27.9-50.6-27.9-77.3c0-27.1,10.7-52,30.2-70.3c18.7-17.5,43.7-27.1,70.4-27.1c26.7,0,51.7,9.6,70.5,27.1
				C346,72.8,356.7,97.8,356.7,124.9z"/>
		</g>
	</g>
	<g id="XMLID_00000095335860398595838420000004323031123262656664_">
		<g>
			<path d="M418.9,386.8c-3.8,32.9-8.9,61-15.6,85.8c-1.9,7-8.2,11.9-15.5,11.9H124.2c-7.2,0-13.6-4.9-15.4-11.9
				c-6.6-24.8-11.8-52.8-15.6-85.8c-3.5-30.1-0.2-54.7,10.2-75.2c10.6-21,29.9-39.7,54.4-52.5c5.4-2.8,11-5.4,16.8-7.7
				c4.6-1.8,9.8-1.4,14.1,1.2c20.8,12.6,44.1,19.2,67.3,19.2s46.5-6.6,67.3-19.2c4.2-2.6,9.5-3,14.1-1.2c5.8,2.2,11.4,4.8,16.8,7.6
				c24.5,13,43.8,31.6,54.5,52.6C419.1,332.1,422.4,356.7,418.9,386.8z"/>
		</g>
	</g>
</g>
</svg>
